<?xml version="1.0" encoding="UTF-8"?>
<svg xmlns="http://www.w3.org/2000/svg" xmlns:xlink="http://www.w3.org/1999/xlink" width="48px" height="48px" viewBox="0 0 48 48" version="1.1">
<defs>
<linearGradient id="linear0" gradientUnits="userSpaceOnUse" x1="0.499948" y1="1.224504" x2="0.499948" y2="0.31139" gradientTransform="matrix(44.042969,0,0,47.863281,1.976562,0)">
<stop offset="0" style="stop-color:rgb(100%,94.509804%,0%);stop-opacity:1;"/>
<stop offset="1" style="stop-color:rgb(94.117647%,35.294119%,15.686275%);stop-opacity:1;"/>
</linearGradient>
</defs>
<g id="surface1">
<path style=" stroke:none;fill-rule:nonzero;fill:url(#linear0);" d="M 45.949219 21.121094 C 45.871094 20.316406 45.738281 19.394531 45.476562 18.367188 C 45.210938 17.351562 44.816406 16.230469 44.238281 15.070312 C 43.65625 13.910156 42.90625 12.710938 41.929688 11.535156 C 41.546875 11.074219 41.125 10.628906 40.675781 10.191406 C 41.347656 7.515625 39.859375 5.195312 39.859375 5.195312 C 37.289062 5.035156 35.652344 6 35.046875 6.433594 C 34.941406 6.394531 34.847656 6.34375 34.742188 6.300781 C 34.308594 6.132812 33.859375 5.960938 33.386719 5.816406 C 32.925781 5.667969 32.449219 5.539062 31.960938 5.417969 C 31.472656 5.300781 30.984375 5.207031 30.484375 5.128906 C 30.390625 5.117188 30.3125 5.101562 30.222656 5.089844 C 29.101562 1.503906 25.882812 0 25.882812 0 C 22.285156 2.28125 21.609375 5.472656 21.609375 5.472656 C 21.609375 5.472656 21.597656 5.539062 21.570312 5.65625 C 21.375 5.710938 21.175781 5.773438 20.976562 5.828125 C 20.703125 5.90625 20.425781 6.011719 20.160156 6.117188 C 19.882812 6.222656 19.621094 6.328125 19.34375 6.449219 C 18.804688 6.683594 18.261719 6.949219 17.734375 7.238281 C 17.21875 7.527344 16.71875 7.84375 16.230469 8.175781 C 16.164062 8.148438 16.101562 8.121094 16.101562 8.121094 C 11.117188 6.222656 6.699219 8.503906 6.699219 8.503906 C 6.289062 13.804688 8.691406 17.140625 9.164062 17.746094 C 9.046875 18.078125 8.941406 18.40625 8.835938 18.734375 C 8.464844 19.9375 8.1875 21.164062 8.015625 22.441406 C 7.992188 22.625 7.964844 22.808594 7.953125 22.996094 C 3.335938 25.277344 1.976562 29.929688 1.976562 29.929688 C 5.816406 34.347656 10.296875 34.625 10.296875 34.625 C 10.296875 34.625 10.3125 34.609375 10.3125 34.609375 C 10.878906 35.625 11.539062 36.589844 12.277344 37.5 C 12.59375 37.882812 12.910156 38.238281 13.25 38.59375 C 11.855469 42.601562 13.449219 45.925781 13.449219 45.925781 C 17.722656 46.082031 20.53125 44.050781 21.125 43.589844 C 21.546875 43.734375 21.980469 43.867188 22.414062 43.972656 C 23.734375 44.316406 25.078125 44.511719 26.421875 44.566406 C 26.753906 44.578125 27.097656 44.59375 27.425781 44.578125 L 27.902344 44.578125 L 28.113281 44.566406 L 28.113281 44.578125 C 30.128906 47.453125 33.664062 47.863281 33.664062 47.863281 C 36.179688 45.210938 36.324219 42.574219 36.324219 42.007812 C 36.324219 42.007812 36.324219 41.996094 36.324219 41.96875 C 36.324219 41.914062 36.324219 41.890625 36.324219 41.890625 C 36.324219 41.851562 36.324219 41.808594 36.324219 41.769531 C 36.851562 41.402344 37.355469 41.003906 37.828125 40.570312 C 38.832031 39.660156 39.714844 38.621094 40.453125 37.5 C 40.519531 37.394531 40.585938 37.289062 40.652344 37.183594 C 43.5 37.339844 45.515625 35.414062 45.515625 35.414062 C 45.042969 32.449219 43.351562 31 42.996094 30.722656 C 42.996094 30.722656 42.984375 30.707031 42.957031 30.695312 C 42.929688 30.683594 42.929688 30.667969 42.929688 30.667969 C 42.917969 30.65625 42.890625 30.640625 42.867188 30.628906 C 42.878906 30.445312 42.890625 30.273438 42.90625 30.089844 C 42.929688 29.773438 42.929688 29.441406 42.929688 29.125 L 42.929688 28.703125 C 42.929688 28.625 42.929688 28.652344 42.929688 28.625 L 42.917969 28.425781 L 42.90625 28.164062 C 42.90625 28.070312 42.890625 27.992188 42.878906 27.914062 C 42.867188 27.832031 42.867188 27.742188 42.851562 27.664062 L 42.824219 27.410156 L 42.785156 27.160156 C 42.734375 26.832031 42.679688 26.515625 42.601562 26.1875 C 42.296875 24.90625 41.796875 23.695312 41.152344 22.597656 C 40.492188 21.503906 39.675781 20.542969 38.738281 19.726562 C 37.816406 18.90625 36.773438 18.25 35.691406 17.761719 C 34.597656 17.273438 33.464844 16.957031 32.332031 16.8125 C 31.765625 16.730469 31.195312 16.707031 30.628906 16.71875 L 30.367188 16.71875 C 30.351562 16.71875 30.285156 16.71875 30.300781 16.71875 L 30.207031 16.71875 L 29.996094 16.730469 C 29.917969 16.730469 29.839844 16.746094 29.773438 16.746094 C 29.484375 16.773438 29.191406 16.8125 28.914062 16.863281 C 27.78125 17.074219 26.714844 17.484375 25.777344 18.050781 C 24.839844 18.617188 24.023438 19.316406 23.363281 20.105469 C 22.707031 20.898438 22.191406 21.78125 21.835938 22.691406 C 21.480469 23.601562 21.28125 24.550781 21.230469 25.460938 C 21.214844 25.683594 21.214844 25.921875 21.214844 26.144531 C 21.214844 26.199219 21.214844 26.265625 21.214844 26.316406 L 21.230469 26.503906 C 21.242188 26.609375 21.242188 26.726562 21.253906 26.832031 C 21.292969 27.292969 21.386719 27.742188 21.503906 28.164062 C 21.757812 29.019531 22.152344 29.796875 22.640625 30.457031 C 23.128906 31.117188 23.722656 31.65625 24.339844 32.09375 C 24.960938 32.515625 25.632812 32.816406 26.292969 33.015625 C 26.953125 33.214844 27.609375 33.292969 28.230469 33.292969 C 28.308594 33.292969 28.386719 33.292969 28.453125 33.292969 C 28.492188 33.292969 28.535156 33.292969 28.574219 33.292969 C 28.613281 33.292969 28.652344 33.292969 28.691406 33.28125 C 28.757812 33.28125 28.824219 33.265625 28.890625 33.265625 C 28.902344 33.265625 28.929688 33.265625 28.941406 33.253906 L 29.007812 33.238281 C 29.046875 33.238281 29.085938 33.226562 29.125 33.226562 C 29.207031 33.214844 29.273438 33.199219 29.351562 33.1875 C 29.429688 33.175781 29.496094 33.160156 29.5625 33.132812 C 29.707031 33.109375 29.839844 33.054688 29.96875 33.015625 C 30.234375 32.921875 30.496094 32.816406 30.722656 32.699219 C 30.960938 32.582031 31.171875 32.433594 31.382812 32.304688 C 31.433594 32.265625 31.5 32.222656 31.554688 32.171875 C 31.765625 32 31.804688 31.683594 31.632812 31.472656 C 31.488281 31.289062 31.222656 31.234375 31.011719 31.355469 C 30.960938 31.378906 30.90625 31.40625 30.855469 31.433594 C 30.667969 31.527344 30.484375 31.605469 30.285156 31.671875 C 30.089844 31.738281 29.878906 31.789062 29.667969 31.828125 C 29.5625 31.84375 29.457031 31.855469 29.335938 31.867188 C 29.285156 31.867188 29.230469 31.882812 29.167969 31.882812 C 29.113281 31.882812 29.046875 31.882812 29.007812 31.882812 C 28.957031 31.882812 28.902344 31.882812 28.851562 31.882812 C 28.785156 31.882812 28.71875 31.882812 28.652344 31.867188 C 28.652344 31.867188 28.613281 31.867188 28.640625 31.867188 L 28.574219 31.867188 C 28.546875 31.867188 28.507812 31.867188 28.480469 31.855469 C 28.414062 31.84375 28.363281 31.84375 28.296875 31.828125 C 27.808594 31.761719 27.320312 31.617188 26.859375 31.40625 C 26.382812 31.195312 25.9375 30.90625 25.527344 30.535156 C 25.117188 30.167969 24.761719 29.734375 24.484375 29.230469 C 24.207031 28.730469 24.011719 28.175781 23.917969 27.597656 C 23.878906 27.304688 23.851562 27.003906 23.867188 26.714844 C 23.867188 26.632812 23.878906 26.554688 23.878906 26.476562 C 23.878906 26.503906 23.878906 26.460938 23.878906 26.460938 L 23.878906 26.371094 C 23.878906 26.332031 23.890625 26.292969 23.890625 26.25 C 23.90625 26.09375 23.933594 25.933594 23.957031 25.777344 C 24.183594 24.511719 24.816406 23.273438 25.789062 22.335938 C 26.042969 22.097656 26.304688 21.886719 26.582031 21.691406 C 26.859375 21.492188 27.164062 21.320312 27.480469 21.175781 C 27.796875 21.03125 28.113281 20.910156 28.453125 20.820312 C 28.785156 20.726562 29.125 20.675781 29.484375 20.636719 C 29.652344 20.621094 29.824219 20.609375 30.011719 20.609375 C 30.0625 20.609375 30.089844 20.609375 30.128906 20.609375 L 30.367188 20.609375 C 30.40625 20.609375 30.367188 20.609375 30.378906 20.609375 L 30.417969 20.609375 L 30.5625 20.621094 C 30.945312 20.648438 31.316406 20.699219 31.683594 20.792969 C 32.421875 20.953125 33.148438 21.226562 33.820312 21.597656 C 35.164062 22.347656 36.3125 23.507812 37.011719 24.90625 C 37.367188 25.605469 37.617188 26.355469 37.738281 27.136719 C 37.761719 27.332031 37.789062 27.53125 37.800781 27.726562 L 37.816406 27.875 L 37.828125 28.019531 C 37.828125 28.070312 37.828125 28.125 37.828125 28.164062 C 37.828125 28.214844 37.828125 28.269531 37.828125 28.308594 L 37.828125 28.585938 C 37.828125 28.675781 37.816406 28.835938 37.816406 28.929688 C 37.800781 29.140625 37.777344 29.363281 37.75 29.574219 C 37.722656 29.785156 37.683594 29.996094 37.644531 30.207031 C 37.605469 30.417969 37.550781 30.628906 37.5 30.828125 C 37.394531 31.234375 37.261719 31.644531 37.105469 32.054688 C 36.789062 32.84375 36.367188 33.609375 35.863281 34.308594 C 34.847656 35.707031 33.464844 36.839844 31.882812 37.566406 C 31.089844 37.921875 30.261719 38.183594 29.402344 38.316406 C 28.980469 38.394531 28.546875 38.433594 28.113281 38.449219 L 27.503906 38.449219 C 27.558594 38.449219 27.492188 38.449219 27.492188 38.449219 L 27.453125 38.449219 C 27.214844 38.449219 26.992188 38.433594 26.753906 38.410156 C 25.832031 38.34375 24.921875 38.171875 24.023438 37.921875 C 23.140625 37.671875 22.285156 37.3125 21.464844 36.890625 C 19.84375 36.023438 18.378906 34.835938 17.246094 33.398438 C 16.679688 32.6875 16.179688 31.90625 15.769531 31.105469 C 15.363281 30.300781 15.03125 29.441406 14.792969 28.585938 C 14.558594 27.714844 14.410156 26.832031 14.347656 25.933594 L 14.332031 25.765625 L 14.332031 25.011719 C 14.332031 25.011719 14.332031 25.027344 14.332031 25 L 14.332031 24.921875 C 14.332031 24.816406 14.332031 24.695312 14.332031 24.589844 C 14.347656 24.15625 14.386719 23.695312 14.4375 23.246094 C 14.492188 22.796875 14.570312 22.335938 14.664062 21.886719 C 14.753906 21.4375 14.859375 20.992188 14.992188 20.542969 C 15.242188 19.660156 15.558594 18.800781 15.929688 17.996094 C 16.679688 16.390625 17.65625 14.953125 18.828125 13.804688 C 19.121094 13.515625 19.421875 13.25 19.738281 12.988281 C 20.054688 12.738281 20.386719 12.5 20.726562 12.273438 C 21.058594 12.050781 21.414062 11.851562 21.769531 11.667969 C 21.941406 11.578125 22.125 11.484375 22.308594 11.40625 C 22.402344 11.367188 22.496094 11.324219 22.585938 11.285156 C 22.679688 11.246094 22.769531 11.207031 22.863281 11.167969 C 23.234375 11.007812 23.617188 10.878906 24.011719 10.757812 C 24.101562 10.734375 24.207031 10.707031 24.300781 10.667969 C 24.394531 10.640625 24.5 10.613281 24.589844 10.585938 C 24.789062 10.535156 24.988281 10.480469 25.183594 10.441406 C 25.277344 10.417969 25.382812 10.402344 25.488281 10.375 C 25.59375 10.351562 25.683594 10.335938 25.789062 10.3125 C 25.894531 10.296875 25.988281 10.269531 26.09375 10.257812 L 26.238281 10.230469 L 26.398438 10.207031 C 26.503906 10.191406 26.59375 10.179688 26.699219 10.164062 C 26.820312 10.152344 26.925781 10.140625 27.042969 10.125 C 27.136719 10.113281 27.292969 10.101562 27.386719 10.085938 C 27.453125 10.074219 27.53125 10.074219 27.597656 10.058594 L 27.742188 10.046875 L 27.808594 10.035156 L 27.886719 10.035156 C 28.007812 10.019531 28.113281 10.019531 28.230469 10.007812 L 28.402344 9.996094 C 28.402344 9.996094 28.46875 9.996094 28.414062 9.996094 L 28.535156 9.996094 C 28.625 9.996094 28.730469 9.980469 28.824219 9.980469 C 29.207031 9.96875 29.601562 9.96875 29.984375 9.980469 C 30.75 10.007812 31.5 10.101562 32.226562 10.230469 C 33.6875 10.507812 35.058594 10.96875 36.3125 11.589844 C 37.566406 12.195312 38.671875 12.949219 39.648438 13.765625 C 39.714844 13.816406 39.765625 13.871094 39.832031 13.921875 C 39.886719 13.976562 39.953125 14.027344 40.003906 14.082031 C 40.125 14.1875 40.230469 14.292969 40.347656 14.398438 C 40.464844 14.503906 40.570312 14.609375 40.675781 14.714844 C 40.78125 14.820312 40.886719 14.925781 40.992188 15.042969 C 41.402344 15.480469 41.785156 15.914062 42.128906 16.363281 C 42.8125 17.246094 43.367188 18.144531 43.800781 18.988281 C 43.828125 19.039062 43.855469 19.09375 43.882812 19.144531 C 43.90625 19.199219 43.933594 19.25 43.960938 19.304688 C 44.011719 19.410156 44.066406 19.515625 44.105469 19.621094 C 44.15625 19.726562 44.199219 19.816406 44.25 19.921875 C 44.289062 20.027344 44.34375 20.121094 44.382812 20.226562 C 44.539062 20.621094 44.699219 21.003906 44.816406 21.359375 C 45.015625 21.941406 45.160156 22.453125 45.277344 22.902344 C 45.316406 23.085938 45.488281 23.207031 45.675781 23.179688 C 45.871094 23.167969 46.015625 23.007812 46.015625 22.808594 C 46.03125 22.335938 46.015625 21.769531 45.949219 21.121094 Z M 45.949219 21.121094 "/>
</g>
</svg>
