<?xml version="1.0" encoding="UTF-8"?>
<svg xmlns="http://www.w3.org/2000/svg" xmlns:xlink="http://www.w3.org/1999/xlink" width="48px" height="48px" viewBox="0 0 48 48" version="1.1">
<g id="surface1">
<path style=" stroke:none;fill-rule:nonzero;fill:rgb(89.803922%,43.921569%,0%);fill-opacity:1;" d="M 48 24 C 48 37.253906 37.253906 48 24 48 C 10.746094 48 0 37.253906 0 24 C 0 10.746094 10.746094 0 24 0 C 37.253906 0 48 10.746094 48 24 Z M 48 24 "/>
<path style=" stroke:none;fill-rule:nonzero;fill:rgb(100%,100%,100%);fill-opacity:1;" d="M 24 23.335938 L 16.0625 14.605469 C 16.375 14.296875 16.730469 14.058594 17.136719 13.878906 C 17.546875 13.703125 17.984375 13.613281 18.453125 13.613281 C 18.957031 13.617188 19.410156 13.714844 19.828125 13.90625 C 20.246094 14.101562 20.605469 14.367188 20.910156 14.703125 L 23.996094 18.074219 L 27.0625 14.703125 C 27.378906 14.367188 27.75 14.101562 28.167969 13.90625 C 28.589844 13.714844 29.042969 13.617188 29.535156 13.613281 C 30.003906 13.617188 30.445312 13.707031 30.851562 13.878906 C 31.261719 14.058594 31.621094 14.296875 31.925781 14.605469 L 24 23.335938 M 24 24.664062 L 16.0625 33.394531 C 16.375 33.703125 16.730469 33.941406 17.136719 34.121094 C 17.546875 34.296875 17.984375 34.386719 18.453125 34.386719 C 18.945312 34.382812 19.402344 34.285156 19.824219 34.09375 C 20.246094 33.898438 20.617188 33.632812 20.929688 33.296875 L 23.996094 29.925781 L 27.078125 33.296875 C 27.382812 33.632812 27.746094 33.898438 28.164062 34.09375 C 28.578125 34.285156 29.035156 34.382812 29.535156 34.386719 C 30.003906 34.382812 30.445312 34.292969 30.851562 34.121094 C 31.261719 33.941406 31.621094 33.703125 31.925781 33.394531 L 24 24.664062 M 23.335938 24 L 17.359375 17.445312 C 17.011719 17.078125 16.609375 16.785156 16.144531 16.570312 C 15.683594 16.359375 15.183594 16.25 14.648438 16.246094 C 14.132812 16.25 13.648438 16.351562 13.203125 16.542969 C 12.753906 16.734375 12.367188 17 12.027344 17.335938 L 18.089844 24 L 12.023438 30.664062 C 12.359375 31.011719 12.753906 31.285156 13.199219 31.480469 C 13.648438 31.679688 14.128906 31.777344 14.644531 31.777344 C 15.183594 31.773438 15.683594 31.664062 16.148438 31.453125 C 16.613281 31.242188 17.015625 30.945312 17.351562 30.578125 L 23.335938 24 M 24.664062 24 L 30.640625 30.578125 C 30.980469 30.945312 31.382812 31.238281 31.847656 31.453125 C 32.3125 31.664062 32.8125 31.773438 33.351562 31.777344 C 33.867188 31.773438 34.351562 31.671875 34.796875 31.480469 C 35.246094 31.285156 35.632812 31.015625 35.972656 30.664062 L 29.910156 24 L 35.976562 17.335938 C 35.640625 16.996094 35.246094 16.734375 34.800781 16.542969 C 34.351562 16.351562 33.871094 16.25 33.355469 16.246094 C 32.820312 16.25 32.320312 16.359375 31.859375 16.570312 C 31.402344 16.78125 30.992188 17.078125 30.648438 17.445312 L 24.664062 24 "/>
</g>
</svg>
